<svg id="Layer_1" data-name="Layer 1" xmlns="http://www.w3.org/2000/svg" xmlns:xlink="http://www.w3.org/1999/xlink" viewBox="0 0 349.65 348.03"><defs><linearGradient id="linear-gradient" x1="500.83" y1="470.77" x2="102.96" y2="244.88" gradientUnits="userSpaceOnUse"><stop offset="0.01"/><stop offset="0.83" stop-opacity="0.07"/><stop offset="1" stop-opacity="0"/></linearGradient><linearGradient id="linear-gradient-2" x1="226.01" y1="90.15" x2="186.07" y2="102.02" xlink:href="#linear-gradient"/><linearGradient id="linear-gradient-3" x1="218.1" y1="253.56" x2="160.25" y2="221.46" xlink:href="#linear-gradient"/><linearGradient id="linear-gradient-4" x1="262.84" y1="190.59" x2="151.17" y2="121.91" xlink:href="#linear-gradient"/><linearGradient id="linear-gradient-5" x1="282.6" y1="240.86" x2="174.45" y2="233.33" xlink:href="#linear-gradient"/><linearGradient id="linear-gradient-6" x1="217.44" y1="83.51" x2="263.06" y2="103.84" xlink:href="#linear-gradient"/><linearGradient id="linear-gradient-7" x1="354.26" y1="178.62" x2="173.51" y2="159.99" xlink:href="#linear-gradient"/><linearGradient id="linear-gradient-8" x1="254.53" y1="193.74" x2="197.6" y2="277.5" gradientUnits="userSpaceOnUse"><stop offset="0.02" stop-color="#fff" stop-opacity="0"/><stop offset="0.39" stop-color="#fff" stop-opacity="0.39"/><stop offset="1" stop-color="#fff"/></linearGradient><linearGradient id="linear-gradient-9" x1="216.58" y1="314.3" x2="260.42" y2="147.83" xlink:href="#linear-gradient"/><linearGradient id="linear-gradient-10" x1="273.15" y1="178.3" x2="206.18" y2="145.3" xlink:href="#linear-gradient"/><linearGradient id="linear-gradient-11" x1="134.19" y1="147.06" x2="135.69" y2="139.59" xlink:href="#linear-gradient-8"/><linearGradient id="linear-gradient-12" x1="79.45" y1="149.11" x2="81.34" y2="135.04" xlink:href="#linear-gradient-8"/><linearGradient id="linear-gradient-13" x1="97.92" y1="145.46" x2="98.73" y2="136.44" xlink:href="#linear-gradient-8"/><linearGradient id="linear-gradient-14" x1="262.52" y1="55.44" x2="197.24" y2="68.61" xlink:href="#linear-gradient"/><linearGradient id="linear-gradient-15" x1="227.44" y1="59.31" x2="219.36" y2="100.29" xlink:href="#linear-gradient"/><linearGradient id="linear-gradient-16" x1="195.15" y1="52.65" x2="233.38" y2="70.93" gradientTransform="translate(206.43 -160.24) rotate(72.32)" xlink:href="#linear-gradient"/></defs><title>Fire Fighter</title><path d="M382.67,157.5c-4.17,26.73-25.41,46.15-27.2,73.08-.51,7.6-.17,15.31-.32,22.94a93.89,93.89,0,0,1-1.18,14q-.42,2.49-1.07,5c-.28,1-.58,2.06-.92,3.08s-.59,1.79-.88,2.69h0C346.41,293,342.4,309.94,331,321c-6.4,6.2-13,12.56-21.58,16.16-7.14,3-15.16,3.9-23,4.74-41.26,4.41-82.9,8.83-124.28,5.39-28-2.33-55.85-8.5-81-20-31.92-14.63-40.92-35.41-44.47-63.63-.66-5.26-1.13-10.77-1.52-16.55A246.69,246.69,0,0,1,61.73,118.51C67.74,106.75,75,95,86.31,87,97.88,78.68,112.72,74.9,125,67.45,144.4,55.65,155.82,35.66,174.56,23,192.33,11,215,6.69,237,3.55,259.32.37,282.74-1.81,304,5c27.86,8.87,47.27,31.7,59.95,55.53C380,90.56,387.81,124.54,382.67,157.5Z" transform="translate(-34.58 -0.52)" fill="#1c64f2" opacity="0.18" style="isolation:isolate"/><path d="M355.15,253.52a93.89,93.89,0,0,1-1.18,14q-.42,2.49-1.07,5c-.28,1-.58,2.06-.92,3.08s-.59,1.79-.88,2.69h0c-2,6.24-3.84,12.88-6.2,19.3-3.21,8.76-7.34,17.12-13.94,23.52-6.4,6.2-13,12.56-21.58,16.16-6.15,2.59-12.94,3.61-19.73,4.38l-3.29.36c-41.26,4.41-82.9,8.83-124.28,5.39-28-2.33-55.85-8.5-81-20-31.92-14.63-40.92-35.41-44.47-63.63,1-.75,1.56-1.14,1.56-1.14s221.94,40,315.89-8.49Z" transform="translate(-34.58 -0.52)" fill="#1c64f2" opacity="0.43" style="isolation:isolate"/><path d="M344.9,297.51c-3.21,8.76-7.34,17.12-13.94,23.52-6.4,6.2-13,12.56-21.58,16.16-6.15,2.59-12.94,3.61-19.73,4.38-27.32-1.91-54.58-4.9-82-5.78-16.23-.51-33.38-.5-47.33-7.91-2.67-1.42-5.2-3.1-8.12-4a35.54,35.54,0,0,0-9.17-1.1,533.23,533.23,0,0,1-59.38-5.3A9.81,9.81,0,0,1,79,316c-1.26-1-1.74-2.91-.55-4l50,4.65c7.48.7,17.15,1.95,23.87-1.61-4.67-4.88-12.49-8.93-5.75-15.1,4.73-4.33,14.69-5,21-4.57,10.74.72,16.16,6.35,24.31,11.79,9.29,6.2,20,6.92,31.27,7.12l50.92.91c5.71.1,12.11,0,16.1-3.67a4.62,4.62,0,0,0,1.5-2.29c.64-3-3.51-4.83-6.86-5.38s-7.58-1.59-7.95-4.6c-.2-1.52.77-3,1.87-4.13,7.6-8.19,21.54-9,33.13-6.47C323.05,291.11,333.55,296,344.9,297.51Z" transform="translate(-34.58 -0.52)" fill="url(#linear-gradient)"/><path d="M204.77,94.71c-.54,2.85-1.78,5.63-1.58,8.51a10.55,10.55,0,0,0,6.37,8.45,14.94,14.94,0,0,0,11.54.12A9.31,9.31,0,0,0,225,109a7.72,7.72,0,0,0,1.43-4.31c.18-3.49-1.23-6.88-2.76-10.11a135,135,0,0,0-7-12.87A16.17,16.17,0,0,0,212.78,77c-1.39-1-4-2.14-5.87-1.39s-1.9,2.87-2,4.47C204.57,85,205.7,89.86,204.77,94.71Z" transform="translate(-34.58 -0.52)" fill="#1c64f2"/><path d="M204.77,94.71c-.54,2.85-1.78,5.63-1.58,8.51a10.55,10.55,0,0,0,6.37,8.45,14.94,14.94,0,0,0,11.54.12A9.31,9.31,0,0,0,225,109a7.72,7.72,0,0,0,1.43-4.31c.18-3.49-1.23-6.88-2.76-10.11a135,135,0,0,0-7-12.87A16.17,16.17,0,0,0,212.78,77c-1.39-1-4-2.14-5.87-1.39s-1.9,2.87-2,4.47C204.57,85,205.7,89.86,204.77,94.71Z" transform="translate(-34.58 -0.52)" fill="url(#linear-gradient-2)"/><path d="M201.1,197.81,157.54,239l6.72,50s11,3.85,15.52,1.3l1.14-42.18,36.49-19.31,24-27.65S214,188.67,201.1,197.81Z" transform="translate(-34.58 -0.52)" fill="#1c64f2"/><path d="M201.1,197.81,157.54,239l6.72,50s11,3.85,15.52,1.3l1.14-42.18,36.49-19.31,24-27.65S214,188.67,201.1,197.81Z" transform="translate(-34.58 -0.52)" fill="url(#linear-gradient-3)"/><path d="M222.38,141.47s-.57,1-1.55,2.49h0c-3.87,6-14.09,20.81-20.94,20.71-18.11-.27-38.63-4.08-45.6-5.47l-2.46-.51a53.63,53.63,0,0,0,4.07-16.95L194.2,144l23.27-25.5Z" transform="translate(-34.58 -0.52)" fill="#1c64f2"/><path d="M155.9,141.74l-1.83.16L150,158.28l2.27,1S155.45,145.63,155.9,141.74Z" transform="translate(-34.58 -0.52)" fill="#fff"/><path d="M220.83,144h0c-3.87,6-14.09,20.81-20.94,20.71-18.11-.27-38.63-4.08-45.6-5.47a49.33,49.33,0,0,0,1.37-8.76L194,152.68l23.28-25.5Z" transform="translate(-34.58 -0.52)" fill="url(#linear-gradient-4)"/><path d="M209.63,197l5.16,47.95,60.47,40s1.31-6,5.32-9.14l-36-37.84-2.29-40.79S220.72,186.08,209.63,197Z" transform="translate(-34.58 -0.52)" fill="#1c64f2"/><path d="M209.63,197l5.16,47.95,60.47,40s1.31-6,5.32-9.14l-36-37.84-2.29-40.79S220.72,186.08,209.63,197Z" transform="translate(-34.58 -0.52)" fill="url(#linear-gradient-5)"/><path d="M211.42,101c2.55,6.49,6.6,2.21,7.27,4.76a27.93,27.93,0,0,1,0,12s15.45-2.49,20-6.13c0,0-3.29-8.62-1.48-13.27s6-12.11,2.23-18.45-10.88-12.82-21.24-12.64C205.9,67.45,200.71,73.68,211.42,101Z" transform="translate(-34.58 -0.52)" fill="#f6c8c9"/><polygon points="175.79 109.16 181.37 118.87 209.11 108.33 206.97 99.44 175.79 109.16" fill="#1c64f2"/><polygon points="196.68 101.17 172.17 108.72 173.83 110.47 198.04 103.6 196.68 101.17" fill="#fff"/><path d="M229.36,93.5c-.18,3.37.19,6.93,2.33,9.71,3.27,4.25,9.62,5.46,15.37,6,3.49.31,7.87,0,9.29-2.81a5.2,5.2,0,0,0-.71-5,49.94,49.94,0,0,0-3.57-4.18,16.06,16.06,0,0,1-3.72-9.63c0-1.77.14-3.72-1.07-5.12-1-1.13-2.61-1.6-4.14-2-2.7-.7-13.16-5-14.8-2.06-.47.84,1.55,6,1.58,7.38A67.5,67.5,0,0,1,229.36,93.5Z" transform="translate(-34.58 -0.52)" fill="#1c64f2"/><path d="M229.36,93.5c-.18,3.37.19,6.93,2.33,9.71,3.27,4.25,9.62,5.46,15.37,6,3.49.31,7.87,0,9.29-2.81a5.2,5.2,0,0,0-.71-5,49.94,49.94,0,0,0-3.57-4.18,16.06,16.06,0,0,1-3.72-9.63c0-1.77.14-3.72-1.07-5.12-1-1.13-2.61-1.6-4.14-2-2.7-.7-13.16-5-14.8-2.06-.47.84,1.55,6,1.58,7.38A67.5,67.5,0,0,1,229.36,93.5Z" transform="translate(-34.58 -0.52)" fill="url(#linear-gradient-6)"/><path d="M245.85,193.78a46.3,46.3,0,0,0-1,10.66c.1,4.75,1.12,9.56,1.36,14.33a2,2,0,0,1-.26,1.38,2.56,2.56,0,0,1-1.59.75,57.85,57.85,0,0,1-13.8.92l-1.69-.08c-2.75-.14-5.49-.38-8.22-.62-.07-1.15-.13-2.31-.19-3.47-.24,1.43-1.78,2.45-3.38,2.72l-.23,0a13.14,13.14,0,0,1-5-.69c-9.61-2.67-19.4-5.79-26.85-11.83a43.37,43.37,0,0,0,8.13-5.86c4.23-3.86,8.43-8.93,9.87-14.22.67-2.51,1-5.14,1.45-7.69q2.51-13.1,5-26.22c2.54-13.37,4-21.14,6.56-34.52,0,0,17-12,21.81-12,1.87,0,4.41,1.2,6.89,2.85,20,13.36,14.78,46.32,7.24,65.37C249.5,181.61,247.16,187.56,245.85,193.78Z" transform="translate(-34.58 -0.52)" fill="#1c64f2"/><path d="M213.86,108.43l6.24,11s-4.88,66.44-17.81,80.4c0,0-9.76,8.89-12.71,10.31l-2.72-1s13-7.5,14.24-11.34,4.59-2.21,10.49-31.74S218.4,120,218.4,120l-6.13-10.79Z" transform="translate(-34.58 -0.52)" fill="#fff"/><path d="M246.44,193.9c-2,8.56-.72,16-.27,24.87a2,2,0,0,1-.26,1.38,2.56,2.56,0,0,1-1.59.75,57.85,57.85,0,0,1-13.8.92l-.12-2.15a3.11,3.11,0,0,1-1.57,2.07,5.21,5.21,0,0,1-2,.69,13,13,0,0,1-5-.7c-1.58-.43-3.17-.89-4.75-1.36-8-2.41-15.87-5.42-22.1-10.45a44.7,44.7,0,0,0,8.14-5.86c4.23-3.87,8.43-8.93,9.86-14.23.68-2.5,1-5.15,1.46-7.68q2.49-13.11,5-26.22c2.55-13.38,4-21.15,6.56-34.52,0,0,12-8.51,18.72-11.22,16.88,11.24,16.72,38.36,11.64,55.9-2.53,8.72-6.69,16.86-9.27,25.56C246.81,192.41,246.61,193.16,246.44,193.9Z" transform="translate(-34.58 -0.52)" fill="url(#linear-gradient-7)"/><path d="M224.48,88.53l-.38.43a13.29,13.29,0,0,1-3.67,3.27,35.23,35.23,0,0,1-6.14,2.35,13.39,13.39,0,0,1-4.33,1c-1.47-.1-2,.56-1.22,2.93s2.91,6.32,5.58,6.51a30.46,30.46,0,0,0,6.62-.24c6.71-1.77,7.69-7.92,9.07-13.2a12.72,12.72,0,0,0,.47-2.43,11.82,11.82,0,0,0-.26-2.9c-.42-2.44-.91-4.88-1.46-7.3a1.77,1.77,0,0,0-.51-1c-.71-.58-1.94,0-2.21.87a4.92,4.92,0,0,0,.26,2.53A8.48,8.48,0,0,1,224.48,88.53Z" transform="translate(-34.58 -0.52)" fill="#3f3d56"/><path d="M210.52,97.39a35.41,35.41,0,0,0,8.85-2c3.88-1.58,4.17-1,4.7.8s-.74,4.44-3.75,5.07-7.47,1.09-7.83.3S210.45,98.08,210.52,97.39Z" transform="translate(-34.58 -0.52)" fill="#f6c8c9"/><path d="M271.2,264.39l-12,11.69L278,290s2,1.64.35,1.86-5.2,1.47-6.34,3.62a8.74,8.74,0,0,0-1.14,3.72,20.69,20.69,0,0,0,10.77.45c5.83-1.35,7.6-4.06,7.6-4.06l3.11-6.27-.76-2.54,2.66.51,2.09-3.22s-5.58-4.07-7.22-4.52-6-2.14-7.48-5S271.2,264.39,271.2,264.39Z" transform="translate(-34.58 -0.52)" fill="#3f3d56"/><path d="M160.45,273.2l21.8-1.58-2,21.91.89,6.09.38,3.73-6.84.51-1-3.22-2.48,2.54L148,303s-3-8.28,4.37-8.13c8.17.17,11.78-2.88,11.78-2.88Z" transform="translate(-34.58 -0.52)" fill="#3f3d56"/><path d="M300.88,265.75h0Zm54.82,12.61-1,0,2.38.08Zm-2.91-10.93-1.08,0-1.11,0-1.71-.05-.59,0-1.79,0-2.48-.09c-1.25,0-2.54-.08-3.85-.13l-4.63-.15-2-.07c-15-.5-30.32-1-32.49-1H301l-.79-.06-.5-.05-1.64-.16-.83-.09c-.44-.05-.9-.1-1.39-.17l-.64-.07-2.36-.3-1-.14-.37,0-1.83-.25-.13,0-.72-.1-5.51-.82c-2.78-.43-5.81-.93-9-1.49l-.82-.14-1.11-.2-2-.36-1.87-.35-1.15-.21-1.91-.37-1.17-.24-2-.38c-2.14-.44-4.32-.9-6.52-1.38l-2-.45a280.51,280.51,0,0,1-30.3-8.42l-1.84-.65a120.69,120.69,0,0,1-15.52-6.72l-.68-.37-.24-.13-1.44-.81c-1.26-.74-2.47-1.5-3.61-2.27-.67-.46-1.32-.93-1.94-1.4s-1.22-.95-1.78-1.45c-.2-.16-.38-.32-.56-.48-.72-.65-1.4-1.32-2-2a52.32,52.32,0,0,1-4-4.92c-.19-.26-.37-.53-.55-.79-.36-.53-.69-1-1-1.56l-.46-.78c-.3-.51-.58-1-.83-1.51h0a28,28,0,0,1-1.62-3.7c-2.14-5.91-2-11.38-1.36-17.12.15-1.31.32-2.64.49-4,.24-1.92.49-3.89.67-5.93h0a51.29,51.29,0,0,0-.88-17c-.24-1-.52-2.05-.85-3.09-.22-.7-.46-1.4-.73-2.11a35.72,35.72,0,0,0-6-10.37c-.75-.9-1.53-1.76-2.35-2.58-.54-.55-1.09-1.08-1.66-1.6-13.91-12.63-34.74-15.54-35.88-15.69l-.52,3.16L135,151.17s.52.07,1.35.22l.69.13c.5.09,1.08.21,1.72.36l1.58.36,1.16.3c1.2.31,2.52.69,3.91,1.14l1.43.48.73.25c.49.18,1,.36,1.48.56,8.49,3.27,18.39,9.11,22.13,19.14.33.89.62,1.77.86,2.63.14.47.26.93.37,1.39.07.31.14.62.2.93.15.7.27,1.4.37,2.09s.14,1.13.2,1.69c.07.72.11,1.44.14,2.15a61,61,0,0,1-.56,9.84c-.11.92-.23,1.85-.35,2.78s-.23,1.87-.34,2.82c-.84,7.1-1.3,14.77,1.92,23.3.24.64.5,1.28.78,1.93h0c.42,1,.9,2,1.42,2.94h0a49.73,49.73,0,0,0,3.11,5c.24.35.48.7.74,1,.51.69,1,1.39,1.6,2.09.85,1.07,1.77,2.14,2.75,3.22.81.89,1.69,1.77,2.65,2.64.77.68,1.58,1.37,2.44,2.05s1.77,1.35,2.72,2q.72.51,1.47,1c.5.33,1,.66,1.53,1l1.6,1,.83.48c.57.31,1.13.64,1.72,1,12.22,6.65,29.57,12.48,51.87,17.43,25.32,5.62,47.81,8,49.64,8l.91,0H303l1.18,0h.45l.44,0h.56l2.55.08.71,0h.26l1.22,0,2.73.09,1.93.07h.38l1.64.05,3.21.11,1.9.05,3.15.11,1.87.06,2.41.08,1.83.06,1.87.06,4.21.14,2.1.07,10.16.34,1.32,0,1.11,0-1.11,0c.29-.9.58-1.8.88-2.69s.64-2.06.92-3.08q.64-2.48,1.07-5h-.15Z" transform="translate(-34.58 -0.52)" fill="#1c64f2"/><path d="M352.79,267.43l-1.08,0-1.11,0-1.71-.05-.59,0-1.79,0-2.48-.09-3.85-.13-4.63-.15-2-.07c-15-.5-30.32-1-32.49-1H301l-.79-.06a4.7,4.7,0,0,1-.5-.05l-1.64-.16-.83-.09c-.44-.05-.9-.1-1.39-.17l-.64-.07-2.36-.3-1-.14-.37,0-1.83-.25-.13,0-.72-.1-5.51-.82c-2.78-.44-5.81-.94-9-1.49l-.82-.14-1.11-.2-2-.36-1.87-.35-1.15-.21-1.91-.37-1.17-.24-2-.38c-2.14-.44-4.32-.9-6.52-1.38l-2-.45a280.51,280.51,0,0,1-30.3-8.42l-1.84-.65a120.69,120.69,0,0,1-15.52-6.72l-.68-.37-.24-.13-1.44-.81c-1.26-.74-2.47-1.5-3.61-2.27-.67-.46-1.32-.93-1.94-1.4s-1.22-1-1.78-1.45c-.2-.16-.38-.32-.56-.48-.72-.66-1.4-1.33-2-2a54.16,54.16,0,0,1-4-4.92c-.19-.26-.37-.53-.55-.79-.35-.53-.68-1-1-1.56l-.46-.78c-.29-.51-.57-1-.83-1.51h0a31.57,31.57,0,0,1-1.62-3.7c-2.14-5.91-2-11.38-1.36-17.12.14-1.31.31-2.64.48-4,.24-1.92.49-3.89.68-5.93h0a51.29,51.29,0,0,0-.88-17c-.24-1-.52-2.05-.85-3.09-.22-.7-.46-1.4-.73-2.11a35.72,35.72,0,0,0-6-10.37c-.75-.9-1.53-1.76-2.35-2.58-.54-.55-1.1-1.08-1.66-1.6-13.91-12.63-34.74-15.54-35.88-15.69l-.52,3.16L135,151.17s.52.07,1.35.22l.69.13c.5.1,1.08.21,1.72.36l1.58.36,1.16.3c1.2.32,2.52.7,3.91,1.14l1.43.48.73.25c.49.18,1,.36,1.48.56,8.49,3.27,18.39,9.11,22.13,19.14.33.89.62,1.77.86,2.63.14.47.26.93.37,1.39.07.31.14.62.2.93.15.7.27,1.4.37,2.09s.14,1.13.2,1.69c.07.72.11,1.44.14,2.15a61,61,0,0,1-.56,9.84c-.1.92-.23,1.85-.34,2.78s-.24,1.87-.35,2.82c-.84,7.1-1.3,14.77,1.92,23.3.23.64.5,1.29.78,1.93h0c.42,1,.89,2,1.42,2.94h0a48.66,48.66,0,0,0,3.11,5c.24.35.48.7.74,1,.51.7,1,1.4,1.6,2.09.85,1.07,1.77,2.14,2.75,3.22.81.89,1.69,1.77,2.65,2.64.77.69,1.58,1.38,2.44,2.05s1.77,1.36,2.72,2q.72.51,1.47,1c.5.33,1,.66,1.53,1l1.6,1,.83.48c.57.31,1.13.64,1.72,1,12.22,6.65,29.57,12.48,51.87,17.43,25.32,5.62,47.81,8,49.64,8l.91,0H303l1.18,0h.45l.44,0h.56l2.55.08.71,0h.26l1.22,0,2.73.09,1.93.07h.38l1.64.05,3.21.11,1.9.05,3.15.11,1.87.06,2.41.08,1.83.06,1.87.06,4.21.14,2.1.07,10.16.34,1.32,0c.29-.9.58-1.8.88-2.69s.64-2.06.92-3.08q.64-2.48,1.07-5h-.15Z" transform="translate(-34.58 -0.52)" fill="url(#linear-gradient-8)"/><path d="M293.53,267.56h0Zm0,2.93c-8.7-.54-87.32-13.8-107-35.48-12-13.21-10.77-23-9.34-34.38,1-8.17,2.21-17.43-1.78-28.12-7-18.67-28.08-26.18-39.1-28.89L135,151.17s.52.07,1.35.22l.69.13c.5.1,1.08.21,1.72.36l1.58.36,1.16.3c1.2.32,2.52.7,3.91,1.14l1.43.48.73.25c.49.18,1,.36,1.48.56,8.49,3.27,18.39,9.11,22.13,19.14.33.89.62,1.77.86,2.63.14.47.26.93.37,1.39.07.31.14.62.2.93.15.7.27,1.4.37,2.09s.14,1.13.2,1.69c.07.72.11,1.44.14,2.15a61,61,0,0,1-.56,9.84c-.1.92-.23,1.85-.34,2.78s-.24,1.87-.35,2.82c-.84,7.1-1.3,14.77,1.92,23.3.23.64.5,1.29.78,1.93h0c.42,1,.89,2,1.42,2.94h0a48.66,48.66,0,0,0,3.11,5c.24.35.48.7.74,1,.51.7,1,1.4,1.6,2.09.85,1.07,1.77,2.14,2.75,3.22.81.89,1.69,1.77,2.65,2.64.77.69,1.58,1.38,2.44,2.05s1.77,1.36,2.72,2q.72.51,1.47,1c.5.33,1,.66,1.53,1l1.6,1,.83.48c.57.31,1.13.64,1.72,1,12.22,6.65,29.57,12.48,51.87,17.43,25.32,5.62,47.81,8,49.64,8l.91,0H303l1.18,0h.45l.44,0h.56l2.55.08.71,0h.26l1.22,0,2.73.09,1.93.07h.38l1.64.05,3.21.11,1.9.05,3.15.11,1.87.06,2.41.08,1.83.06,1.87.06,4.21.14,2.1.07,10.16.34,1.32,0c.29-.9.58-1.8.88-2.69s.64-2.06.92-3.08C340.12,272,297.25,270.54,293.51,270.49Z" transform="translate(-34.58 -0.52)" fill="url(#linear-gradient-9)"/><path d="M195.72,170s-5.52,1.2-6.64.67-.39-2.07-4.08-2.75-5.46-2.38-6.08-1.42,1.1,1.35,1.58,2.39-1.09,2.6-4.1,1-3.36-4-4.51-2.87-5.41,5-4.84,6.54,6.68,7.49,10.36,7.51,10.18-2.29,12.57-1.57,7.3-2.25,7.3-2.25" transform="translate(-34.58 -0.52)" fill="#f6c8c9"/><path d="M188.62,168.8l-1.31.1s-2,5.51.34,10.06,3.63,6.37,3.63,6.37l1.08-.1Z" transform="translate(-34.58 -0.52)" fill="#fff"/><path d="M247.12,166.37c-3.16,12.25-53.46,20.78-53.46,20.78a51.74,51.74,0,0,1-3.33-6.09c-2-4.34-3.78-9.9-1.49-12.89,0,0,31.81-9.89,34-12.65s6.7-23,7.73-29.36c1-6.2,9.36-10.92,15.12-9.29A7,7,0,0,1,248,118S258.67,121.65,247.12,166.37Z" transform="translate(-34.58 -0.52)" fill="#1c64f2"/><path d="M247.12,166.37c-3.16,12.25-53.46,20.78-53.46,20.78a51.74,51.74,0,0,1-3.33-6.09,4.35,4.35,0,0,1,.55-1s41.25-11.48,43.4-14.23,7.82-37.65,8.85-44.05a9.71,9.71,0,0,1,2.52-4.95A7,7,0,0,1,248,118S258.67,121.65,247.12,166.37Z" transform="translate(-34.58 -0.52)" fill="url(#linear-gradient-10)"/><path d="M130.35,154l4.23.78a2.93,2.93,0,0,0,3.45-2l2.84-12.3a2.61,2.61,0,0,0-2.26-3.06l-4.24-.78a2.91,2.91,0,0,0-3.44,2l-2.85,12.29A2.62,2.62,0,0,0,130.35,154Z" transform="translate(-34.58 -0.52)" fill="#1c64f2"/><path d="M130.35,154l4.23.78a2.93,2.93,0,0,0,3.45-2l2.84-12.3a2.61,2.61,0,0,0-2.26-3.06l-4.24-.78a2.91,2.91,0,0,0-3.44,2l-2.85,12.29A2.62,2.62,0,0,0,130.35,154Z" transform="translate(-34.58 -0.52)" fill="url(#linear-gradient-11)"/><path d="M152.61,154.46c.56-1.05-.27-2.31-1.35-3s-2.4-.93-3.5-1.55c-1.27-.72-2.19-1.84-3.38-2.66s-2.94-1.3-4.18-.53c-1.41.88-1.32,2.74-2.07,4.12s1.34,2.82,2.56,3.66a14.94,14.94,0,0,0,3.61,1.94,17.67,17.67,0,0,0,4.11.69,2.49,2.49,0,0,0,.86,0,2.17,2.17,0,0,0,.63-.31A9.34,9.34,0,0,0,152.61,154.46Z" transform="translate(-34.58 -0.52)" fill="#f6c8c9"/><polygon points="97.11 136.77 65.81 134.9 64.54 141 93.5 150.37 97.11 136.77" fill="#1c64f2"/><polygon points="97.11 136.77 65.81 134.9 64.54 141 93.5 150.37 97.11 136.77" fill="url(#linear-gradient-12)"/><path d="M97.63,142.82h0a2.1,2.1,0,0,1-1.88-2.41L96.83,135a2.33,2.33,0,0,1,2.71-1.68h0a2.11,2.11,0,0,1,1.88,2.41l-1.09,5.39A2.31,2.31,0,0,1,97.63,142.82Z" transform="translate(-34.58 -0.52)" fill="#1c64f2"/><path d="M97.63,142.82h0a2.1,2.1,0,0,1-1.88-2.41L96.83,135a2.33,2.33,0,0,1,2.71-1.68h0a2.11,2.11,0,0,1,1.88,2.41l-1.09,5.39A2.31,2.31,0,0,1,97.63,142.82Z" transform="translate(-34.58 -0.52)" fill="url(#linear-gradient-13)"/><path d="M249.81,82.11a4,4,0,0,1-.85.9h0a4.68,4.68,0,0,1-2,.89c-13.38-5.77-23.14-6.9-38-6.65a46.61,46.61,0,0,1-9.41-2.34c-1.26-.63-2.08-2.18-1.27-3.25a2.62,2.62,0,0,1,1.65-.9c1.48-.31,3.36-.12,4.38-1.12a3.62,3.62,0,0,0,.85-2.1c1.32-7.38,4.09-21.84,15-22.8a18,18,0,0,1,9.62,2.31c9,4.62,15.23,13.32,16.13,22.55.43,4.29.08,9.3,3.52,12.2C249.55,81.91,249.67,82,249.81,82.11Z" transform="translate(-34.58 -0.52)" fill="#1c64f2"/><path d="M244.5,75.88c.05-1.8-2.29-2.76-4.23-3.27l-8.39-2.18a11.77,11.77,0,0,1-3.17-1.15A7.11,7.11,0,0,1,226,66c-1.15-2.62-1.21-5.51-1.57-8.31s-1.16-5.73-3.39-7.73-6.29-2.58-8.49-.55a7.88,7.88,0,0,0-1.63,2.46,119.09,119.09,0,0,0-5.77,12.74c-.59,1.64-1.95,3.81-.46,5.16,1.23,1.12,5.35,1.37,7,1.72A218.73,218.73,0,0,0,244.5,75.88Z" transform="translate(-34.58 -0.52)" fill="url(#linear-gradient-14)"/><path d="M249.81,82.11,249,83h0a4.68,4.68,0,0,1-2,.89c-13.38-5.77-23.14-6.9-38-6.65a46.61,46.61,0,0,1-9.41-2.34c-1.26-.63-2.08-2.18-1.27-3.25a2.62,2.62,0,0,1,1.65-.9c-.21.44-1.23,3.06,4.46,3.78,6.22.79,26.87-.22,36.11,3.39a68.46,68.46,0,0,1,8.89,3.87C249.81,82.05,249.81,82.11,249.81,82.11Z" transform="translate(-34.58 -0.52)" fill="url(#linear-gradient-15)"/><ellipse cx="212.85" cy="61.11" rx="5.69" ry="4.34" transform="translate(55.39 244.83) rotate(-72.32)" fill="url(#linear-gradient-16)"/><ellipse cx="211.46" cy="60.83" rx="5.69" ry="4.34" transform="translate(54.69 243.3) rotate(-72.32)" fill="#1c64f2"/><path d="M257.74,114.77" transform="translate(-34.58 -0.52)" fill="#fff"/><path d="M76.08,127.5a51.93,51.93,0,0,1-7-1.77c-2.83-1-5.62-2.81-8.65-2.36-4,4.64-5.68,10.5-7.27,16.17q20.08-.4,40.18.4a4,4,0,0,0,1.54-.13,3,3,0,0,0,1.59-2c.79-2.22,1.14-2.66-.77-3.88-1.73-1.12-4.42-1.72-6.4-2.45A102,102,0,0,0,76.08,127.5Z" transform="translate(-34.58 -0.52)" fill="#fff"/></svg>